# xmcd
#
# Track frame offsets: 
#        150
#        14890
#        34175
#        52005
#        71355
#        86390
#        99560
#        114050
#        130245
#        143695
#        165805
#        190035
#        206375
#        226110
#        245205
#        262520
#        278955
#        297560
#
# Disc length: 4163 seconds
#
# Revision: 1
# Processed by: cddbd v1.5.2PL0 Copyright (c) Steve Scherf et al.
# Submitted via: ExactAudioCopy v0.99pb5
#
DISCID=f3104112
DTITLE=Various Artist - Gator Blues
DYEAR=1998
DGENRE=Blues
TTITLE0=Billy Boy Arnold - I ain't got you
TTITLE1=Rufus Thomas - Blues in the basement
TTITLE2=Carey Bell - I got to go
TTITLE3=Lonnie Brooks - Don't take adventage of me
TTITLE4=Fenton Robinson - The getaway
TTITLE5=Hound Dog Taylor - My baby's coming home
TTITLE6=Kenny Neal - Hoodoo moon
TTITLE7=Johnny Winter - Boot hill
TTITLE8=Corey Harris - Mama got worried
TTITLE9=Professor Longhair - It's my fault, darling
TTITLE10=Maurice John Vaughn - Garbage man blues
TTITLE11=Lonnie Mack [with Stevie Ray Vaughan] - Double whammy
TTITLE12=Long John Hunter - Ice cold
TTITLE13=Albert Collins - Give me my blues
TTITLE14=Clarence Gatemouth Brown - Born in Luisiana
TTITLE15=Son Seals - Going home tomorrow
TTITLE16=Koko Taylor - Spellbound
TTITLE17=Nappy Brown - Heartbreak (It's heartin' me)
EXTD=
EXTT0=
EXTT1=
EXTT2=
EXTT3=
EXTT4=
EXTT5=
EXTT6=
EXTT7=
EXTT8=
EXTT9=
EXTT10=
EXTT11=
EXTT12=
EXTT13=
EXTT14=
EXTT15=
EXTT16=
EXTT17=
PLAYORDER=
